HIERARCHY
ROOT Pelvis
{
	OFFSET 0.000000 0.000000 0.000000
	CHANNELS 6 Xposition Yposition Zposition Xrotation Yrotation Zrotation
	JOINT LeftUpLeg_virtual
	{
		OFFSET 0.000000 0.000000 0.000000
		CHANNELS 3 Xrotation Yrotation Zrotation
		JOINT LeftUpLeg
		{
			OFFSET 18.735201 -5.666702 -4.541200
			CHANNELS 3 Xrotation Yrotation Zrotation
			JOINT LeftLeg
			{
				OFFSET -0.021200 -31.938179 0.493100
				CHANNELS 3 Xrotation Yrotation Zrotation
				JOINT LeftFoot
				{
					OFFSET 0.021200 -31.938179 -4.336299
					CHANNELS 3 Xrotation Yrotation Zrotation
					JOINT LeftToeBase
					{
						OFFSET 0.943001 -26.722000 15.023500
						CHANNELS 3 Xrotation Yrotation Zrotation
						End Site
						{
							OFFSET 0 0 0
						}
					}
				}
			}
		}
	}
	JOINT RightUpLeg_virtual
	{
		OFFSET 0.000000 0.000000 0.000000
		CHANNELS 3 Xrotation Yrotation Zrotation
		JOINT RightUpLeg
		{
			OFFSET -18.735201 -5.666702 -4.541200
			CHANNELS 3 Xrotation Yrotation Zrotation
			JOINT RightLeg
			{
				OFFSET 0.018946 -31.938133 0.493100
				CHANNELS 3 Xrotation Yrotation Zrotation
				JOINT RightFoot
				{
					OFFSET -0.018946 -31.938126 -4.336299
					CHANNELS 3 Xrotation Yrotation Zrotation
					JOINT RightToeBase
					{
						OFFSET -0.943001 -26.722004 15.023500
						CHANNELS 3 Xrotation Yrotation Zrotation
						End Site
						{
							OFFSET 0 0 0
						}
					}
				}
			}
		}
	}
	JOINT Hips_virtual
	{
		OFFSET 0.000000 0.000000 0.000000
		CHANNELS 3 Xrotation Yrotation Zrotation
		JOINT Hips
		{
			OFFSET -0.000000 -0.000000 -0.000000
			CHANNELS 3 Xrotation Yrotation Zrotation
			JOINT Spine
			{
				OFFSET 0.000000 10.199997 -0.299500
				CHANNELS 3 Xrotation Yrotation Zrotation
				JOINT Spine1
				{
					OFFSET 0.000000 11.900002 -1.516600
					CHANNELS 3 Xrotation Yrotation Zrotation
					JOINT Spine2
					{
						OFFSET 0.000000 13.600006 -2.842500
						CHANNELS 3 Xrotation Yrotation Zrotation
						JOINT Neck_virtual
						{
							OFFSET 0.000000 0.000000 0.000000
							CHANNELS 3 Xrotation Yrotation Zrotation
							JOINT Neck
							{
								OFFSET 0.000000 9.624100 -2.890100
								CHANNELS 3 Xrotation Yrotation Zrotation
								JOINT Head
								{
									OFFSET 0.000000 14.068802 -1.351900
									CHANNELS 3 Xrotation Yrotation Zrotation
									End Site
									{
										OFFSET 0 0 0
									}
								}
							}
						}
						JOINT LeftShoulder_virtual
						{
							OFFSET 0.000000 0.000000 0.000000
							CHANNELS 3 Xrotation Yrotation Zrotation
							JOINT LeftShoulder
							{
								OFFSET 15.263000 10.923401 -0.547700
								CHANNELS 3 Xrotation Yrotation Zrotation
								JOINT LeftArm
								{
									OFFSET 25.438599 -2.830597 -13.032500
									CHANNELS 3 Xrotation Yrotation Zrotation
									JOINT LeftForeArm
									{
										OFFSET 29.960503 0.000000 0.000000
										CHANNELS 3 Xrotation Yrotation Zrotation
										JOINT LeftHand
										{
											OFFSET 27.849251 0.000000 0.000000
											CHANNELS 3 Xrotation Yrotation Zrotation
											End Site
											{
												OFFSET 0 0 0
											}
										}
									}
								}
							}
						}
						JOINT RightShoulder_virtual
						{
							OFFSET 0.000000 0.000000 0.000000
							CHANNELS 3 Xrotation Yrotation Zrotation
							JOINT RightShoulder
							{
								OFFSET -15.263000 10.923401 -0.547700
								CHANNELS 3 Xrotation Yrotation Zrotation
								JOINT RightArm
								{
									OFFSET -25.438599 -2.830597 -13.032500
									CHANNELS 3 Xrotation Yrotation Zrotation
									JOINT RightForeArm
									{
										OFFSET -29.960503 0.000000 0.000000
										CHANNELS 3 Xrotation Yrotation Zrotation
										JOINT RightHand
										{
											OFFSET -27.849251 0.000000 0.000000
											CHANNELS 3 Xrotation Yrotation Zrotation
											End Site
											{
												OFFSET 0 0 0
											}
										}
									}
								}
							}
						}
					}
				}
			}
		}
	}
}
MOTION
Frames: 6
Frame Time: 0.03333333
-0.099186 82.776344 39.983334 0.000000 0.000000 0.000000 2.362970 1.477085 -9.780321 -105.990684 -6.072652 18.767104 128.673087 -2.553148 -4.323984 30.580003 12.618071 8.328307 0.000000 0.000000 0.000000 1.935571 -1.263171 -9.586515 -13.817226 -20.258474 6.004420 42.897143 -0.373259 11.535635 -63.282659 -12.306894 -4.812877 0.000000 0.000000 0.000000 7.743525 2.556808 -8.316824 -2.919035 0.070989 -0.993666 16.347667 0.614084 4.919793 4.218879 -0.817662 0.664241 0.000000 0.000000 0.000000 3.977573 -0.084647 -0.475233 -0.765951 0.251260 -1.200812 0.000000 0.000000 0.000000 4.012769 0.073942 -1.804876 0.987692 -6.617941 -9.136036 15.577773 -3.123062 -56.263526 7.057734 -77.837587 3.896336 0.000000 0.000000 0.000000 2.822604 0.746203 -0.644964 1.133339 9.001894 6.665759 -20.298800 19.919091 53.187667 99.544591 83.254767 -100.870699 0.000000 0.000000 0.000000 
-0.370982 83.227127 47.156189 0.000000 0.000000 0.000000 1.735902 0.803801 -9.490848 -105.156541 -7.190982 17.717348 122.010210 -3.505316 -3.686777 18.516371 7.028581 4.719893 0.000000 0.000000 0.000000 2.311810 -1.118918 -10.132779 -14.262072 -20.285961 4.751718 46.956833 1.201764 9.837860 -52.174306 -12.788842 0.209367 0.000000 0.000000 0.000000 7.023273 2.931878 -8.428113 -1.491145 0.666327 0.418808 15.551706 1.099919 5.431609 4.375191 -0.746344 0.667635 0.000000 0.000000 0.000000 4.032076 -0.041021 -0.420561 -0.699403 0.170324 -1.056324 0.000000 0.000000 0.000000 3.773289 0.363913 -1.596654 1.031806 -4.867354 -10.072760 20.098404 -2.429687 -56.760180 5.782682 -78.227564 2.606848 0.000000 0.000000 0.000000 2.657953 0.682276 -0.742463 0.732608 7.289233 6.301088 -19.124465 15.848199 49.971809 102.694087 83.491208 -103.232012 0.000000 0.000000 0.000000 
-0.380999 83.147545 55.957638 0.000000 0.000000 0.000000 2.281859 0.768044 -9.175078 -100.268324 -6.983892 16.145845 108.830650 -5.217059 -4.171598 2.419896 1.672972 -2.176939 0.000000 0.000000 0.000000 2.795276 -0.206252 -10.789517 -11.536302 -18.128912 4.718528 47.065194 2.367040 6.590249 -33.917664 -11.575063 4.806016 0.000000 0.000000 0.000000 5.322014 3.136438 -8.644016 0.427555 0.910203 0.684938 13.813027 1.880021 5.726607 4.627101 -0.491534 0.631706 0.000000 0.000000 0.000000 4.050779 0.351028 -0.346614 -0.645772 0.022452 -0.852338 0.000000 0.000000 0.000000 3.602238 0.843160 -1.304385 1.221372 -2.944004 -10.338495 24.419914 0.051241 -57.514202 4.798156 -77.723127 2.160221 0.000000 0.000000 0.000000 2.723046 0.861240 -0.826784 -0.050654 4.573605 8.330790 -16.554587 7.630220 47.124801 110.410418 83.693976 -109.895968 0.000000 0.000000 0.000000 
-0.458996 82.325165 65.394913 0.000000 0.000000 0.000000 2.608173 0.959321 -9.006695 -90.963776 -5.507552 14.028802 91.659465 -6.153376 -5.681132 -11.103840 -0.288739 -8.274578 0.000000 0.000000 0.000000 2.388217 1.052878 -11.320077 -8.438170 -15.332028 5.541034 47.337289 3.346621 3.227869 -15.022636 -8.505740 7.842944 0.000000 0.000000 0.000000 2.327070 2.627484 -9.075631 0.856441 1.223435 -0.016744 11.862431 2.831827 5.633686 4.759885 -0.125408 0.442437 0.000000 0.000000 0.000000 3.980932 0.875448 -0.366284 -0.683470 -0.159089 -0.611107 0.000000 0.000000 0.000000 3.422061 1.285681 -1.111931 1.342480 -1.977448 -10.490556 26.780320 3.246296 -58.312638 3.839076 -75.436830 2.264659 0.000000 0.000000 0.000000 2.998700 1.223644 -0.921769 -0.894718 2.016813 11.972575 -13.267842 -0.596305 46.215386 90.591920 84.616864 -89.160709 0.000000 0.000000 0.000000 
-0.186100 81.078720 75.751289 0.000000 0.000000 0.000000 0.782561 -0.015865 -8.900091 -77.874443 -3.269377 11.588272 76.335799 -5.266619 -6.925732 -17.081417 0.501415 -9.382716 0.000000 0.000000 0.000000 -0.106382 1.613130 -11.359394 -9.060987 -13.519629 5.675704 53.820333 4.088113 0.727818 1.254230 -4.895770 9.062160 0.000000 0.000000 0.000000 -2.358203 1.187007 -9.456006 0.926872 1.316124 -1.143573 10.341764 3.603911 4.959379 4.711563 0.232013 0.122648 0.000000 0.000000 0.000000 3.813997 1.284320 -0.538073 -0.801911 -0.336985 -0.322532 0.000000 0.000000 0.000000 3.169782 1.501392 -1.184524 1.275270 -2.700723 -10.752632 26.332514 5.899523 -58.445341 3.013375 -70.337930 2.721474 0.000000 0.000000 0.000000 3.392734 1.634359 -1.106342 -1.591123 0.628609 15.859807 -8.918792 -4.085444 46.423365 31.972618 80.462053 -29.743264 0.000000 0.000000 0.000000 
-0.079082 80.147644 85.145432 0.000000 0.000000 0.000000 -4.549530 -3.145421 -8.820037 -62.265391 -1.137861 9.403138 68.104089 -2.931767 -6.896010 -17.280882 2.666415 -4.618995 0.000000 0.000000 0.000000 -5.831192 0.116064 -10.569818 -16.308200 -12.321507 4.876093 68.361219 4.262671 -0.868776 14.998995 -2.059465 8.632923 0.000000 0.000000 0.000000 -8.995908 -1.510124 -9.638419 0.566423 1.496744 -1.953781 9.677878 3.902515 3.627921 4.505338 0.437638 -0.269489 0.000000 0.000000 0.000000 3.439384 1.350548 -0.864049 -0.939507 -0.470701 -0.011418 0.000000 0.000000 0.000000 2.848573 1.412163 -1.460656 0.903866 -5.515625 -11.770748 21.722409 6.897540 -57.209354 2.205933 -61.606749 3.137452 0.000000 0.000000 0.000000 3.789499 1.869960 -1.371400 -2.090344 0.961128 18.620953 -3.546815 -0.151224 45.350014 12.318755 67.433727 -9.320071 0.000000 0.000000 0.000000 
